<svg width="180" height="34" viewBox="0 0 180 34" fill="none" xmlns="http://www.w3.org/2000/svg">
<path d="M0 9.57973H6.05732V11.1858L5.46077 13.6638H6.1491C6.76095 12.3484 7.69402 11.247 8.94831 10.3904C10.2026 9.51854 11.8087 9.07495 13.7666 9.07495C16.2446 9.07495 18.172 9.83976 19.5486 11.3694L18.998 13.7097H19.6863C20.3287 12.3636 21.3077 11.247 22.6232 10.3904C23.9386 9.51854 25.5906 9.07495 27.5792 9.07495C30.0266 9.07495 31.9233 9.74799 33.2694 11.0941C34.6154 12.4401 35.2885 14.2757 35.2885 16.6007V33.0289H27.1203V18.2068C27.1203 16.2489 26.3249 15.2699 24.7341 15.2699C23.8163 15.2699 23.0821 15.5912 22.5314 16.2336C21.9807 16.876 21.7054 17.7785 21.7054 18.941V33.0289H13.5831V18.2068C13.5831 16.2489 12.7877 15.2699 11.1969 15.2699C10.2485 15.2699 9.49898 15.5912 8.94831 16.2336C8.39765 16.876 8.12231 17.7785 8.12231 18.941V33.0289H0V9.57973Z" fill="#DCE1E8"/>
<path d="M105.782 30.3784C104.054 28.2675 103.182 25.2541 103.182 21.3383C103.182 17.4224 104.054 14.3632 105.798 12.2217C107.541 10.0955 109.897 9.04009 112.864 9.04009C114.853 9.04009 116.49 9.45309 117.79 10.2638C119.09 11.0745 120.084 12.1146 120.757 13.3995H121.492L120.849 11.2428L118.968 9.13187V0H127.319V33.0399H120.849V31.4338L121.492 29.1853H120.757C120.115 30.4396 119.136 31.4797 117.82 32.3057C116.505 33.1317 114.838 33.5447 112.819 33.5447C109.851 33.5447 107.495 32.4893 105.782 30.3784ZM119.121 21.2924C119.121 17.2542 117.897 15.2351 115.449 15.2351C113.002 15.2351 111.732 17.2542 111.732 21.2924C111.732 23.2809 112.054 24.7952 112.681 25.8201C113.308 26.8449 114.226 27.3497 115.449 27.3497C117.897 27.3497 119.121 25.3306 119.121 21.2924Z" fill="#DCE1E8"/>
<path d="M132.5 30.3338C130.374 28.1923 129.318 25.1789 129.318 21.2937C129.318 17.4084 130.374 14.3951 132.5 12.2383C134.626 10.0815 137.609 8.99548 141.479 8.99548C145.349 8.99548 148.362 10.0662 150.473 12.2077C152.584 14.3492 153.639 17.3778 153.639 21.2937C153.639 25.2095 152.584 28.2382 150.473 30.3644C148.362 32.4905 145.364 33.546 141.479 33.546C137.594 33.546 134.626 32.4752 132.5 30.3338ZM145.333 21.2478C145.333 17.179 144.064 15.1446 141.525 15.1446C138.985 15.1446 137.624 17.179 137.624 21.2478C137.624 23.2669 137.945 24.7965 138.618 25.8367C139.276 26.8768 140.24 27.3969 141.525 27.3969C144.064 27.3969 145.333 25.3472 145.333 21.2478Z" fill="#DCE1E8"/>
<path d="M41.3492 29.8242C39.223 27.6828 38.1676 24.6694 38.1676 20.7842C38.1676 16.8989 39.223 13.8855 41.3492 11.7288C43.4754 9.572 46.4582 8.48596 50.3281 8.48596C54.1981 8.48596 57.2115 9.5567 59.3223 11.6982C61.4332 13.8397 62.4887 16.8683 62.4887 20.7842C62.4887 24.7 61.4332 27.7287 59.3223 29.8548C57.2115 31.981 54.2134 33.0365 50.3281 33.0365C46.4429 33.0365 43.4754 31.9657 41.3492 29.8242ZM54.1828 20.7383C54.1828 16.6695 52.9132 14.6351 50.374 14.6351C47.8348 14.6351 46.4735 16.6695 46.4735 20.7383C46.4735 22.7574 46.7947 24.287 47.4677 25.3271C48.1255 26.3673 49.0891 26.8874 50.374 26.8874C52.9132 26.8874 54.1828 24.8377 54.1828 20.7383Z" fill="#DCE1E8"/>
<path d="M158.366 30.3338C156.24 28.1923 155.185 25.1789 155.185 21.2937C155.185 17.4084 156.24 14.3951 158.366 12.2383C160.492 10.0815 163.475 8.99548 167.345 8.99548C171.215 8.99548 174.229 10.0662 176.339 12.2077C178.45 14.3492 179.506 17.3778 179.506 21.2937C179.506 25.2095 178.45 28.2382 176.339 30.3644C174.229 32.4905 171.23 33.546 167.345 33.546C163.46 33.546 160.492 32.4752 158.366 30.3338ZM171.2 21.2478C171.2 17.179 169.93 15.1446 167.391 15.1446C164.852 15.1446 163.491 17.179 163.491 21.2478C163.491 23.2669 163.812 24.7965 164.485 25.8367C165.143 26.8768 166.106 27.3969 167.391 27.3969C169.93 27.3969 171.2 25.3472 171.2 21.2478Z" fill="#DCE1E8"/>
<path d="M67.23 29.8242C65.1038 27.6828 64.0483 24.6694 64.0483 20.7842C64.0483 16.8989 65.1038 13.8855 67.23 11.7288C69.3561 9.572 72.3389 8.48596 76.2089 8.48596C80.0788 8.48596 83.0922 9.5567 85.2031 11.6982C87.3139 13.8397 88.3694 16.8683 88.3694 20.7842C88.3694 24.7 87.3139 27.7287 85.2031 29.8548C83.0922 31.981 80.0941 33.0365 76.2089 33.0365C72.3236 33.0365 69.3561 31.9657 67.23 29.8242ZM80.0635 20.7383C80.0635 16.6695 78.7939 14.6351 76.2548 14.6351C73.7156 14.6351 72.3542 16.6695 72.3542 20.7383C72.3542 22.7574 72.6754 24.287 73.3485 25.3271C74.0062 26.3673 74.9699 26.8874 76.2548 26.8874C78.7939 26.8874 80.0635 24.8377 80.0635 20.7383Z" fill="#DCE1E8"/>
<rect x="90.7528" y="21.2922" width="6.75122" height="6.75122" rx="1.55085" transform="rotate(-45 90.7528 21.2922)" fill="#DCE1E8"/>
</svg>
